<svg width="50" height="50" viewBox="0 0 50 50" fill="none" xmlns="http://www.w3.org/2000/svg">
<circle cx="25" cy="25" r="25" fill="#0070C0"/>
<path d="M12.2342 35.7831L10.0355 19.9349L15.3905 19.192C16.6286 19.0202 17.6743 19.0907 18.5275 19.4036C19.3799 19.7112 20.0478 20.2048 20.5312 20.8844C21.0146 21.5641 21.3211 22.3707 21.4506 23.3045C21.5802 24.2383 21.5042 25.0928 21.2226 25.868C20.941 26.6432 20.4342 27.2919 19.7022 27.8141C18.9694 28.3312 17.9891 28.6749 16.7613 28.8452L12.4278 29.4464L12.1873 27.713L16.4589 27.1204C17.3049 27.003 17.9687 26.7847 18.4503 26.4655C18.937 26.1456 19.2649 25.7426 19.4341 25.2564C19.6077 24.7643 19.6505 24.201 19.5625 23.5665C19.4744 22.9319 19.2788 22.3938 18.9757 21.9521C18.6725 21.5104 18.2425 21.1967 17.6857 21.011C17.1281 20.8202 16.4212 20.7842 15.5648 20.903L12.1908 21.3711L14.1533 35.5169L12.2342 35.7831ZM18.7063 27.6289L23.5941 34.2071L21.3655 34.5163L16.5396 27.9295L18.7063 27.6289ZM36.5415 16.2577L38.7401 32.1059L36.8829 32.3636L26.5206 21.1183L26.3658 21.1398L28.0921 33.5831L26.173 33.8494L23.9743 18.0011L25.8315 17.7435L36.2291 29.0154L36.3839 28.9939L34.6533 16.5196L36.5415 16.2577Z" fill="white"/>
</svg>
