<svg width="50" height="50" viewBox="0 0 50 50" fill="none" xmlns="http://www.w3.org/2000/svg">
<circle cx="25" cy="25" r="25" fill="#E97132"/>
<path d="M9.5625 18H11.7812L16.2188 25.4687H16.4063L20.8438 18H23.0625L17.2813 27.4063V34H15.3438V27.4063L9.5625 18ZM38.3164 26C38.3164 27.6875 38.0117 29.1458 37.4023 30.375C36.793 31.6042 35.957 32.5521 34.8945 33.2188C33.832 33.8854 32.6185 34.2187 31.2539 34.2187C29.8893 34.2187 28.6758 33.8854 27.6133 33.2188C26.5508 32.5521 25.7148 31.6042 25.1055 30.375C24.4961 29.1458 24.1914 27.6875 24.1914 26C24.1914 24.3125 24.4961 22.8542 25.1055 21.625C25.7148 20.3958 26.5508 19.4479 27.6133 18.7812C28.6758 18.1146 29.8893 17.7812 31.2539 17.7812C32.6185 17.7812 33.832 18.1146 34.8945 18.7812C35.957 19.4479 36.793 20.3958 37.4023 21.625C38.0117 22.8542 38.3164 24.3125 38.3164 26ZM36.4414 26C36.4414 24.6146 36.2096 23.4453 35.7461 22.4922C35.2878 21.5391 34.6654 20.8177 33.8789 20.3281C33.0977 19.8385 32.2227 19.5937 31.2539 19.5937C30.2852 19.5937 29.4076 19.8385 28.6211 20.3281C27.8398 20.8177 27.2174 21.5391 26.7539 22.4922C26.2956 23.4453 26.0664 24.6146 26.0664 26C26.0664 27.3854 26.2956 28.5547 26.7539 29.5078C27.2174 30.4609 27.8398 31.1823 28.6211 31.6719C29.4076 32.1615 30.2852 32.4062 31.2539 32.4062C32.2227 32.4062 33.0977 32.1615 33.8789 31.6719C34.6654 31.1823 35.2878 30.4609 35.7461 29.5078C36.2096 28.5547 36.4414 27.3854 36.4414 26Z" fill="white"/>
</svg>
